<?xml version="1.0" ?><!DOCTYPE svg  PUBLIC '-//W3C//DTD SVG 1.1//EN'  'http://www.w3.org/Graphics/SVG/1.1/DTD/svg11.dtd'><svg enable-background="new 0 0 128 128" height="128px" id="Layer_1" version="1.1" viewBox="0 0 128 128" width="128px" xml:space="preserve" xmlns="http://www.w3.org/2000/svg" xmlns:xlink="http://www.w3.org/1999/xlink"><path d="M64,13.5c-28.7,0-52,23.3-52,52s23.3,52,52,52s52-23.3,52-52S92.7,13.5,64,13.5z M64,113.5  c-26.5,0-48-21.5-48-48s21.5-48,48-48s48,21.5,48,48S90.5,113.5,64,113.5z" fill="#3B97D3"/><path d="M64,36.5c3.3,0,6,2.7,6,6V60h18c3.3,0,6,2.7,6,6s-2.7,6-6,6H70v18.5c0,3.3-2.7,6-6,6s-6-2.7-6-6V72H40  c-3.3,0-6-2.7-6-6s2.7-6,6-6h18V42.5C58,39.1,60.7,36.5,64,36.5 M64,34.5c-4.4,0-8,3.6-8,8V58H40c-4.4,0-8,3.6-8,8s3.6,8,8,8h16  v16.5c0,4.4,3.6,8,8,8s8-3.6,8-8V74h16c4.4,0,8-3.6,8-8s-3.6-8-8-8H72V42.5C72,38,68.4,34.5,64,34.5L64,34.5z" fill="#2C3E50"/></svg>